<mxfile host="65bd71144e">
    <diagram id="SA0--UctY9LwFAj7ZWB-" name="Page-1">
        <mxGraphModel dx="1144" dy="787" grid="0" gridSize="10" guides="1" tooltips="1" connect="1" arrows="1" fold="1" page="1" pageScale="1" pageWidth="850" pageHeight="1100" background="#ffffff" math="0" shadow="1">
            <root>
                <mxCell id="0"/>
                <mxCell id="1" parent="0"/>
                <mxCell id="2" value="&lt;b&gt;Total Memories:&lt;/b&gt; 324&lt;br&gt;&lt;br&gt;Total Memories in Training: 200&lt;br&gt;&lt;br&gt;Total Memories Synced:&lt;br&gt;&lt;br&gt;Total Memories not being actively trained:&lt;br&gt;&lt;br&gt;Total Review Count: 1,033&lt;br&gt;&lt;br&gt;Perfect Recall: 982&lt;br&gt;&lt;br&gt;Partial Recall: 234&lt;br&gt;&lt;br&gt;Failed Recall: 20&lt;br&gt;&lt;br&gt;Last Review: Dec 20, 2023&lt;br&gt;&lt;br&gt;Next Review: Dec 25, 2023" style="rounded=0;whiteSpace=wrap;html=1;fillColor=#f5f5f5;fontColor=#333333;strokeColor=#666666;verticalAlign=top;align=left;" parent="1" vertex="1">
                    <mxGeometry x="722" y="139" width="166" height="339" as="geometry"/>
                </mxCell>
                <mxCell id="5" value="" style="rounded=1;whiteSpace=wrap;html=1;fillColor=#f5f5f5;fontColor=#333333;strokeColor=#666666;glass=0;shadow=0;" parent="1" vertex="1">
                    <mxGeometry x="435" y="152" width="120" height="27" as="geometry"/>
                </mxCell>
                <mxCell id="7" value="You have a review scheduled today. Begin now?" style="rounded=0;whiteSpace=wrap;html=1;fillColor=#f5f5f5;fontColor=#333333;strokeColor=#666666;" parent="1" vertex="1">
                    <mxGeometry x="132" y="217" width="577" height="60" as="geometry"/>
                </mxCell>
                <mxCell id="9" value="" style="shape=cylinder3;whiteSpace=wrap;html=1;boundedLbl=1;backgroundOutline=1;size=15;shadow=0;glass=0;rotation=90;fillColor=#f5f5f5;fontColor=#333333;strokeColor=#666666;" parent="1" vertex="1">
                    <mxGeometry x="123" y="80" width="28" height="54" as="geometry"/>
                </mxCell>
                <mxCell id="11" value="" style="ellipse;whiteSpace=wrap;html=1;shadow=0;glass=0;sketch=0;fillColor=#f5f5f5;fontColor=#333333;strokeColor=#666666;" parent="1" vertex="1">
                    <mxGeometry x="221" y="32" width="120" height="82" as="geometry"/>
                </mxCell>
                <mxCell id="17" value="Hello, Theara" style="text;strokeColor=none;fillColor=none;html=1;fontSize=24;fontStyle=1;verticalAlign=middle;align=center;shadow=0;glass=0;sketch=0;fontColor=#000000;" parent="1" vertex="1">
                    <mxGeometry x="118" y="157" width="186" height="40" as="geometry"/>
                </mxCell>
                <mxCell id="23" value="You currently have no memories to review. Create one here!" style="rounded=0;whiteSpace=wrap;html=1;fillColor=#f5f5f5;fontColor=#333333;strokeColor=#666666;" parent="1" vertex="1">
                    <mxGeometry x="132" y="297" width="577" height="60" as="geometry"/>
                </mxCell>
                <mxCell id="24" value="Your next review is in 3 days on September 23, 2023&lt;br&gt;&lt;br&gt;What would you like to do?&lt;br&gt;&lt;br&gt;Create a new memory?&lt;br&gt;&lt;br&gt;Review existing memories?&lt;br&gt;&lt;br&gt;Review your progress?" style="rounded=0;whiteSpace=wrap;html=1;fillColor=#f5f5f5;fontColor=#333333;strokeColor=#666666;" parent="1" vertex="1">
                    <mxGeometry x="132" y="380" width="577" height="186" as="geometry"/>
                </mxCell>
            </root>
        </mxGraphModel>
    </diagram>
</mxfile>